<?xml version="1.0" encoding="UTF-8"?>
<svg version="1.1" xmlns="http://www.w3.org/2000/svg" width="512" height="512">
<path d="M0 0 C168.96 0 337.92 0 512 0 C512 168.96 512 337.92 512 512 C343.04 512 174.08 512 0 512 C0 343.04 0 174.08 0 0 Z " transform="translate(0,0)"/>
<path d="M0 0 C4.57179109 4.04357618 6.71333165 8.29958416 7.3359375 14.421875 C7.22344724 19.53080741 5.38658848 22.99871036 1.9609375 26.734375 C-14.29440295 39.84741916 -39.46670885 40.31235618 -59.4140625 40.171875 C-60.27026184 40.1704953 -61.12646118 40.1691156 -62.00860596 40.16769409 C-75.94267505 40.12653398 -89.37907141 38.9897449 -103.125 36.70703125 C-104.12515137 36.54275635 -105.12530273 36.37848145 -106.15576172 36.20922852 C-108.07090206 35.89382225 -109.98408208 35.56626201 -111.89501953 35.22631836 C-117.00345106 34.33989837 -117.00345106 34.33989837 -121.484375 36.48046875 C-122.31582031 37.81271484 -122.31582031 37.81271484 -123.1640625 39.171875 C-123.80601562 40.19152344 -124.44796875 41.21117187 -125.109375 42.26171875 C-138.54708435 66.44415521 -147.86552298 91.55807625 -153.0390625 118.734375 C-149.14148649 117.82501653 -145.24608898 116.90670494 -141.3515625 115.984375 C-140.20574707 115.71359131 -139.05993164 115.44280762 -137.87939453 115.16381836 C-131.96837083 113.74713713 -126.17580909 112.23103021 -120.4140625 110.296875 C-115.91139584 108.85433166 -112.66896684 108.19107355 -108.0390625 109.734375 C-105.1015625 111.421875 -105.1015625 111.421875 -103.0390625 113.734375 C-102.5390625 116.796875 -102.5390625 116.796875 -103.0390625 119.734375 C-107.7408058 125.44541056 -116.80026761 126.56134621 -123.68359375 128.21484375 C-124.57519699 128.43255936 -125.46680023 128.65027496 -126.38542175 128.87458801 C-128.25465963 129.32982838 -130.12448765 129.78265182 -131.99487305 130.2331543 C-134.8621118 130.92441834 -137.72703252 131.62473184 -140.59179688 132.32617188 C-142.41393264 132.76876415 -144.23619395 133.21083991 -146.05859375 133.65234375 C-147.34296074 133.96633369 -147.34296074 133.96633369 -148.65327454 134.28666687 C-149.44807724 134.47719131 -150.24287994 134.66771576 -151.06176758 134.86401367 C-151.7593367 135.03261398 -152.45690582 135.20121429 -153.1756134 135.37492371 C-155.0390625 135.734375 -155.0390625 135.734375 -158.0390625 135.734375 C-158.26980469 136.87390625 -158.50054687 138.0134375 -158.73828125 139.1875 C-159.80061118 144.37808959 -160.91299045 149.55728241 -162.0390625 154.734375 C-162.2050293 155.50894043 -162.37099609 156.28350586 -162.54199219 157.08154297 C-167.58087382 180.17893151 -175.57645081 203.53076728 -186.0390625 224.734375 C-186.54824219 225.76820313 -187.05742187 226.80203125 -187.58203125 227.8671875 C-198.14435846 248.19895944 -212.81331684 262.74182616 -234.76953125 269.9609375 C-252.83280697 275.25239235 -272.86414469 276.53343488 -290.01806641 267.68530273 C-300.35031833 262.00415553 -306.72922776 255.08836507 -310.0390625 243.734375 C-311.61985785 229.41531018 -306.62029148 218.91134941 -298.0390625 207.734375 C-292.44882353 201.05885155 -286.17901044 196.00317299 -278.0390625 192.734375 C-276.7190625 192.734375 -275.3990625 192.734375 -274.0390625 192.734375 C-274.98319716 200.66510611 -278.94876809 206.17022715 -283.4765625 212.484375 C-289.89447062 221.68683898 -294.9432809 230.07103729 -293.0390625 241.734375 C-291.9409143 244.10580709 -290.71525771 245.69151209 -289.0390625 247.734375 C-289.0390625 248.394375 -289.0390625 249.054375 -289.0390625 249.734375 C-288.45640625 250.023125 -287.87375 250.311875 -287.2734375 250.609375 C-285.90020565 251.30079244 -284.5337534 252.00613787 -283.1796875 252.734375 C-282.55578125 253.064375 -281.931875 253.394375 -281.2890625 253.734375 C-280.67546875 254.064375 -280.061875 254.394375 -279.4296875 254.734375 C-266.07129885 260.32219771 -250.24033884 258.93684843 -237.0390625 253.734375 C-214.00940185 243.88211376 -200.78275591 220.60155117 -191.8125 198.37109375 C-185.11555189 180.94350227 -179.82202164 162.71845575 -176.546875 144.33203125 C-176.0390625 141.734375 -176.0390625 141.734375 -175.0390625 139.734375 C-175.57395798 139.87218384 -176.10885345 140.00999268 -176.65995789 140.15197754 C-182.28566867 141.59808104 -187.9166548 143.0221057 -193.55102539 144.43408203 C-195.64617262 144.96209715 -197.73996707 145.49551329 -199.83227539 146.03466797 C-227.87602377 153.25146452 -227.87602377 153.25146452 -235.80737305 149.38476562 C-238.0390625 147.734375 -238.0390625 147.734375 -239.1015625 144.796875 C-239.0390625 141.734375 -239.0390625 141.734375 -237.58984375 139.6953125 C-234.02593535 136.95552381 -230.50344632 136.26104296 -226.1640625 135.296875 C-224.8486145 134.98665405 -224.8486145 134.98665405 -223.5065918 134.67016602 C-220.6873595 134.00967726 -217.86384705 133.37066145 -215.0390625 132.734375 C-213.16783403 132.30527456 -211.29673932 131.87559042 -209.42578125 131.4453125 C-205.73395271 130.59938272 -202.03975215 129.76498777 -198.34375 128.9375 C-194.90395688 128.16420348 -191.47271855 127.36415736 -188.046875 126.53125 C-187.27239014 126.34377197 -186.49790527 126.15629395 -185.69995117 125.96313477 C-184.26665557 125.61421456 -182.83442663 125.26086837 -181.40356445 124.90209961 C-177.85278335 124.04055593 -174.681037 123.66473357 -171.0390625 123.734375 C-170.91934082 123.12416504 -170.79961914 122.51395508 -170.67626953 121.88525391 C-164.27021437 89.50769922 -154.67666107 58.2784366 -136.0390625 30.734375 C-152.26722347 25.80996753 -168.67925027 21.86265466 -185.20297241 18.08343506 C-189.03229534 17.20566275 -192.8505041 16.29534171 -196.66015625 15.3359375 C-210.34795754 11.93992989 -224.41972821 10.24889106 -237.3984375 16.953125 C-245.44439878 21.81310161 -250.97567899 28.88460041 -254.0390625 37.734375 C-256.73435917 49.08902906 -255.22499859 59.48948562 -249.4140625 69.546875 C-238.63221257 79.47752625 -227.53652633 80.04636173 -213.4765625 79.859375 C-211.53426758 79.84583984 -211.53426758 79.84583984 -209.55273438 79.83203125 C-206.38131479 79.80862594 -203.21028877 79.77583728 -200.0390625 79.734375 C-199.80180929 83.62928193 -199.85970778 84.49025329 -202.2890625 87.796875 C-210.23580552 94.93234959 -220.89830041 95.45743045 -231.0546875 95.046875 C-242.7340254 94.1308485 -252.36850967 88.96649408 -260.4140625 80.421875 C-269.03923491 69.99758688 -272.7142776 57.72455154 -272.390625 44.29296875 C-271.00202095 30.23721002 -264.36623351 18.19333252 -254.0390625 8.734375 C-236.92434385 -3.85252568 -218.96061317 -6.45850759 -198.29296875 -3.546875 C-188.78497835 -2.00024627 -179.72445637 0.20705391 -170.65234375 3.44921875 C-160.25415927 7.14760004 -149.56733202 9.93736424 -138.8515625 12.546875 C-137.96645996 12.76601562 -137.08135742 12.98515625 -136.16943359 13.2109375 C-129.66952865 14.81814983 -129.66952865 14.81814983 -123.0390625 14.734375 C-120.65492499 13.10745418 -120.65492499 13.10745418 -118.5390625 10.796875 C-88.61121443 -17.65691489 -34.18264673 -25.66537595 0 0 Z " fill="#FAFAFA" transform="translate(408.0390625,126.265625)"/>
<path d="M0 0 C1.6658556 1.81564643 2.05467765 3.15404695 2.43359375 5.5625 C-21.04923616 18.45004006 -50.27443623 15.95460567 -76.19140625 13.1875 C-77.37605469 13.06149414 -78.56070312 12.93548828 -79.78125 12.80566406 C-88.73184092 11.75126131 -88.73184092 11.75126131 -92.56640625 9.5625 C-80.40099356 1.39731972 -68.81334621 -3.34591403 -54.56640625 -6.4375 C-53.54546875 -6.66566406 -52.52453125 -6.89382812 -51.47265625 -7.12890625 C-35.01806467 -10.36105817 -14.13260069 -10.13800595 0 0 Z " fill="#2E323C" transform="translate(395.56640625,136.4375)"/>
</svg>
